<?xml version="1.0" encoding="utf-8"?>
<!-- Generator: Adobe Illustrator 16.0.0, SVG Export Plug-In . SVG Version: 6.00 Build 0)  -->
<!DOCTYPE svg PUBLIC "-//W3C//DTD SVG 1.1//EN" "http://www.w3.org/Graphics/SVG/1.1/DTD/svg11.dtd">
<svg version="1.1" id="Layer_1" xmlns="http://www.w3.org/2000/svg" xmlns:xlink="http://www.w3.org/1999/xlink" x="0px" y="0px"
	 width="112.4px" height="29.924px" viewBox="0 0 112.4 29.924" enable-background="new 0 0 112.4 29.924" xml:space="preserve">
<g>
	<defs>
		<rect id="SVGID_1_" width="112.4" height="29.924"/>
	</defs>
	<clipPath id="SVGID_2_">
		<use xlink:href="#SVGID_1_"  overflow="visible"/>
	</clipPath>
	<path clip-path="url(#SVGID_2_)" fill="#E1E1E1" d="M35.82,1.276c0.91,0,1.539,0.41,1.949,0.83L37.13,2.825
		c-0.33-0.32-0.69-0.54-1.3-0.54c-1.159,0-1.939,0.9-1.939,2.369c0,1.489,0.7,2.389,2.009,2.389c0.36,0,0.72-0.1,0.93-0.29V5.344
		H35.6v-0.95h2.269v2.879c-0.45,0.42-1.219,0.779-2.109,0.779c-1.739,0-3.058-1.199-3.058-3.368
		C32.702,2.545,34.061,1.276,35.82,1.276"/>
	<path clip-path="url(#SVGID_2_)" fill="#E1E1E1" d="M41.141,2.905c1.329,0,2.029,0.959,2.029,2.328c0,0.221-0.021,0.42-0.05,0.54
		h-3.118c0.099,0.89,0.659,1.39,1.449,1.39c0.419,0,0.779-0.13,1.139-0.36l0.39,0.72c-0.47,0.309-1.059,0.529-1.679,0.529
		c-1.36,0-2.419-0.949-2.419-2.569C38.881,3.884,39.99,2.905,41.141,2.905 M42.169,5.044c0-0.78-0.329-1.25-0.999-1.25
		c-0.58,0-1.08,0.43-1.18,1.25H42.169z"/>
	<path clip-path="url(#SVGID_2_)" fill="#E1E1E1" d="M44.291,3.935h-0.7V3.076l0.76-0.05l0.14-1.34h0.96v1.34H46.7v0.909h-1.249
		v2.339c0,0.579,0.219,0.859,0.689,0.859c0.17,0,0.37-0.05,0.51-0.11l0.2,0.85c-0.27,0.09-0.61,0.18-1,0.18
		c-1.139,0-1.559-0.72-1.559-1.779V3.935z"/>
	<path clip-path="url(#SVGID_2_)" fill="#E1E1E1" d="M49.651,1.516c0-0.389,0.3-0.659,0.71-0.659c0.41,0,0.71,0.27,0.71,0.659
		c0,0.38-0.3,0.65-0.71,0.65C49.951,2.166,49.651,1.896,49.651,1.516 M49.781,3.026h1.149v4.907h-1.149V3.026z"/>
	<path clip-path="url(#SVGID_2_)" fill="#E1E1E1" d="M52.571,3.935h-0.7V3.076l0.76-0.05l0.14-1.34h0.96v1.34h1.249v0.909h-1.249
		v2.339c0,0.579,0.219,0.859,0.689,0.859c0.17,0,0.37-0.05,0.51-0.11l0.2,0.85c-0.27,0.09-0.61,0.18-1,0.18
		c-1.139,0-1.559-0.72-1.559-1.779V3.935z"/>
	<path clip-path="url(#SVGID_2_)" fill="#E1E1E1" d="M60.069,2.905c1.229,0,2.34,0.94,2.34,2.579c0,1.629-1.11,2.569-2.34,2.569
		c-1.22,0-2.328-0.94-2.328-2.569C57.741,3.845,58.85,2.905,60.069,2.905 M60.069,7.113c0.721,0,1.159-0.65,1.159-1.629
		c0-0.99-0.438-1.639-1.159-1.639c-0.72,0-1.148,0.649-1.148,1.639C58.921,6.463,59.35,7.113,60.069,7.113"/>
	<path clip-path="url(#SVGID_2_)" fill="#E1E1E1" d="M63.552,3.025H64.5l0.08,0.66h0.039c0.44-0.43,0.94-0.78,1.61-0.78
		c1.05,0,1.509,0.71,1.509,1.949v3.078h-1.15V5.004c0-0.81-0.228-1.109-0.769-1.109c-0.43,0-0.709,0.209-1.12,0.609v3.428h-1.147
		V3.025z"/>
	<path clip-path="url(#SVGID_2_)" fill="#FFFFFF" d="M90.216,25.18c-0.521,0-0.996-0.095-1.426-0.287
		c-0.432-0.191-0.792-0.487-1.083-0.886h-0.09c0.06,0.467,0.09,0.909,0.09,1.326v3.291h-1.212V17.039h0.985l0.167,1.094h0.06
		c0.312-0.438,0.673-0.752,1.088-0.948c0.412-0.192,0.887-0.291,1.421-0.291c1.061,0,1.879,0.362,2.456,1.086
		c0.575,0.725,0.862,1.742,0.862,3.051c0,1.313-0.293,2.332-0.877,3.061C92.068,24.816,91.257,25.18,90.216,25.18 M90.04,17.921
		c-0.815,0-1.407,0.227-1.771,0.68c-0.365,0.452-0.552,1.172-0.562,2.159v0.271c0,1.123,0.187,1.926,0.562,2.411
		c0.374,0.483,0.974,0.726,1.801,0.726c0.691,0,1.233-0.28,1.623-0.84c0.394-0.558,0.588-1.329,0.588-2.313
		c0-0.996-0.194-1.761-0.588-2.294C91.303,18.187,90.751,17.921,90.04,17.921"/>
	<rect x="95.127" y="13.684" clip-path="url(#SVGID_2_)" fill="#FFFFFF" width="1.211" height="11.351"/>
	<path clip-path="url(#SVGID_2_)" fill="#FFFFFF" d="M103.3,25.034l-0.24-1.138h-0.058c-0.399,0.503-0.797,0.841-1.194,1.018
		c-0.395,0.177-0.89,0.266-1.483,0.266c-0.792,0-1.413-0.204-1.863-0.611c-0.45-0.409-0.676-0.989-0.676-1.744
		c0-1.613,1.292-2.461,3.875-2.539l1.356-0.044v-0.497c0-0.626-0.135-1.09-0.405-1.388c-0.27-0.299-0.702-0.449-1.296-0.449
		c-0.667,0-1.419,0.205-2.26,0.613l-0.373-0.928c0.395-0.212,0.825-0.38,1.294-0.503c0.471-0.122,0.941-0.182,1.413-0.182
		c0.952,0,1.658,0.211,2.118,0.636c0.459,0.422,0.69,1.1,0.69,2.033v5.457H103.3z M100.565,24.181c0.755,0,1.348-0.207,1.776-0.619
		c0.429-0.414,0.646-0.993,0.646-1.737v-0.721l-1.212,0.05c-0.964,0.035-1.657,0.184-2.08,0.449c-0.428,0.265-0.64,0.679-0.64,1.236
		c0,0.438,0.131,0.771,0.397,0.999C99.718,24.067,100.088,24.181,100.565,24.181"/>
	<path clip-path="url(#SVGID_2_)" fill="#FFFFFF" d="M104.901,17.039h1.298l1.752,4.561c0.382,1.04,0.623,1.791,0.714,2.255h0.058
		c0.064-0.25,0.197-0.674,0.399-1.275c0.202-0.6,0.86-2.448,1.979-5.54h1.299l-3.435,9.104c-0.341,0.901-0.738,1.538-1.193,1.916
		c-0.455,0.379-1.014,0.565-1.674,0.565c-0.37,0-0.734-0.043-1.095-0.125v-0.971c0.267,0.061,0.567,0.089,0.896,0.089
		c0.832,0,1.426-0.468,1.78-1.4l0.446-1.138L104.901,17.039z"/>
	<path clip-path="url(#SVGID_2_)" fill="#FFFFFF" d="M67.782,17.782c0.387,0.317,1.188,0.986,1.188,2.257
		c0,1.238-0.702,1.824-1.404,2.376c-0.216,0.214-0.469,0.452-0.469,0.82c0,0.367,0.253,0.567,0.436,0.718l0.604,0.468
		c0.734,0.62,1.403,1.188,1.403,2.343c0,1.571-1.522,3.161-4.397,3.161c-2.426,0-3.595-1.155-3.595-2.393
		c0-0.603,0.299-1.454,1.288-2.041c1.034-0.636,2.44-0.718,3.192-0.77c-0.234-0.301-0.502-0.618-0.502-1.135
		c0-0.286,0.084-0.453,0.167-0.655c-0.184,0.018-0.368,0.033-0.536,0.033c-1.771,0-2.774-1.321-2.774-2.625
		c0-0.769,0.351-1.622,1.069-2.24c0.953-0.785,2.091-0.92,2.994-0.92h3.445l-1.071,0.603H67.782z M66.597,25.208
		c-0.134-0.018-0.218-0.018-0.384-0.018c-0.151,0-1.057,0.033-1.757,0.27c-0.368,0.133-1.438,0.534-1.438,1.721
		c0,1.186,1.153,2.041,2.942,2.041c1.604,0,2.458-0.77,2.458-1.807C68.419,26.562,67.867,26.11,66.597,25.208 M67.081,22.029
		c0.385-0.386,0.418-0.918,0.418-1.22c0-1.205-0.72-3.078-2.106-3.078c-0.436,0-0.904,0.219-1.172,0.554
		c-0.284,0.351-0.367,0.801-0.367,1.237c0,1.119,0.653,2.977,2.09,2.977C66.362,22.499,66.813,22.297,67.081,22.029"/>
	<path clip-path="url(#SVGID_2_)" fill="#FFFFFF" d="M57.256,24.942c-2.655,0-4.074-2.073-4.074-3.943
		c0-2.187,1.785-4.057,4.324-4.057c2.454,0,3.99,1.92,3.99,3.941C61.496,22.853,59.979,24.942,57.256,24.942 M59.343,23.588
		c0.4-0.534,0.501-1.203,0.501-1.854c0-1.471-0.7-4.274-2.772-4.274c-0.55,0-1.101,0.218-1.501,0.568
		c-0.651,0.584-0.769,1.318-0.769,2.039c0,1.65,0.819,4.371,2.839,4.371C58.291,24.438,58.96,24.121,59.343,23.588"/>
	<path clip-path="url(#SVGID_2_)" fill="#FFFFFF" d="M48.207,24.942c-2.656,0-4.075-2.073-4.075-3.943
		c0-2.187,1.787-4.057,4.325-4.057c2.454,0,3.99,1.92,3.99,3.941C52.447,22.853,50.928,24.942,48.207,24.942 M50.294,23.588
		c0.4-0.534,0.5-1.203,0.5-1.854c0-1.471-0.701-4.274-2.771-4.274c-0.551,0-1.103,0.218-1.502,0.568
		c-0.653,0.584-0.77,1.318-0.77,2.039c0,1.65,0.819,4.371,2.84,4.371C49.242,24.438,49.909,24.121,50.294,23.588"/>
	<path clip-path="url(#SVGID_2_)" fill="#FFFFFF" d="M42.856,24.679l-2.399,0.554c-0.976,0.151-1.848,0.284-2.77,0.284
		c-4.633,0-6.395-3.406-6.395-6.076c0-3.256,2.5-6.277,6.781-6.277c0.907,0,1.779,0.134,2.567,0.352
		c1.26,0.352,1.848,0.789,2.216,1.04l-1.393,1.326l-0.587,0.134l0.42-0.672c-0.571-0.552-1.612-1.577-3.592-1.577
		c-2.653,0-4.65,2.016-4.65,4.953c0,3.155,2.282,6.127,5.941,6.127c1.076,0,1.629-0.22,2.132-0.421v-2.701l-2.533,0.134l1.342-0.724
		h3.559l-0.437,0.421c-0.119,0.101-0.135,0.134-0.168,0.27c-0.017,0.149-0.034,0.638-0.034,0.804V24.679z"/>
	<path clip-path="url(#SVGID_2_)" fill="#FFFFFF" d="M73.09,24.195c-0.556-0.051-0.671-0.15-0.671-0.807v-0.185v-9.316
		c0.004-0.037,0.007-0.073,0.009-0.109c0.067-0.587,0.234-0.687,0.758-0.99h-2.402l-1.26,0.605h1.283v0.007v-0.006v9.809v0.555
		c0,0.335-0.067,0.386-0.453,0.889h2.97l0.623-0.367C73.66,24.244,73.374,24.229,73.09,24.195"/>
	<path clip-path="url(#SVGID_2_)" fill="#FFFFFF" d="M79.92,24.349c-0.183,0.101-0.367,0.218-0.548,0.3
		c-0.552,0.252-1.12,0.318-1.621,0.318c-0.531,0-1.366-0.035-2.215-0.651c-1.185-0.833-1.702-2.267-1.702-3.518
		c0-2.584,2.104-3.851,3.819-3.851c0.599,0,1.216,0.15,1.719,0.468c0.831,0.549,1.047,1.265,1.165,1.649l-3.917,1.584l-1.286,0.101
		c0.417,2.117,1.852,3.35,3.436,3.35c0.851,0,1.467-0.301,2.033-0.583L79.92,24.349z M78.353,19.38
		c0.316-0.115,0.482-0.216,0.482-0.448c0-0.666-0.749-1.434-1.649-1.434c-0.668,0-1.917,0.517-1.917,2.317
		c0,0.282,0.032,0.583,0.052,0.883L78.353,19.38z"/>
	<polygon clip-path="url(#SVGID_2_)" fill="#FFFFFF" points="81.528,17.062 81.528,18.161 81.395,18.161 81.395,17.062 
		81.031,17.062 81.031,16.947 81.893,16.947 81.893,17.062 	"/>
	<polygon clip-path="url(#SVGID_2_)" fill="#FFFFFF" points="83.027,18.161 83.027,17.052 83.022,17.052 82.683,18.161 
		82.579,18.161 82.236,17.052 82.232,17.052 82.232,18.161 82.11,18.161 82.11,16.947 82.319,16.947 82.63,17.929 82.633,17.929 
		82.938,16.947 83.147,16.947 83.147,18.161 	"/>
</g>
<g>
	<defs>
		<path id="SVGID_3_" d="M0,1.23v12.1v12.346c0,0.292,0.135,0.492,0.346,0.56L13.915,13.33L0.458,0.533C0.187,0.606,0,0.84,0,1.23"
			/>
	</defs>
	<clipPath id="SVGID_4_">
		<use xlink:href="#SVGID_3_"  overflow="visible"/>
	</clipPath>
	
		<linearGradient id="SVGID_5_" gradientUnits="userSpaceOnUse" x1="0" y1="29.9238" x2="1" y2="29.9238" gradientTransform="matrix(0 26.4678 26.4678 0 -785.0648 0.0957)">
		<stop  offset="0" style="stop-color:#207CB0"/>
		<stop  offset="0.3726" style="stop-color:#3CB2BF"/>
		<stop  offset="0.7953" style="stop-color:#58E9CE"/>
		<stop  offset="1" style="stop-color:#63FFD4"/>
	</linearGradient>
	<rect y="0.533" clip-path="url(#SVGID_4_)" fill="url(#SVGID_5_)" width="13.915" height="25.703"/>
</g>
<g>
	<defs>
		<path id="SVGID_6_" d="M0.458,0.533L13.915,13.33l3.737-3.554l-5.617-3.111c0,0-0.039-0.021-0.113-0.062L11.917,6.6
			c-0.036-0.02-0.08-0.044-0.131-0.073l-0.009-0.004c-0.011-0.007-0.022-0.013-0.034-0.019l-0.009-0.005
			c-0.009-0.006-0.019-0.011-0.029-0.017l-0.043-0.023c-0.003-0.002-0.005-0.003-0.007-0.004L1.176,0.651
			C0.995,0.555,0.815,0.508,0.652,0.508C0.584,0.508,0.519,0.517,0.458,0.533"/>
	</defs>
	<clipPath id="SVGID_7_">
		<use xlink:href="#SVGID_6_"  overflow="visible"/>
	</clipPath>
	
		<linearGradient id="SVGID_8_" gradientUnits="userSpaceOnUse" x1="0" y1="29.9092" x2="1" y2="29.9092" gradientTransform="matrix(17.6514 0 0 -17.6514 0 534.8557)">
		<stop  offset="0" style="stop-color:#4BC3AE"/>
		<stop  offset="1" style="stop-color:#DEE999"/>
	</linearGradient>
	<rect x="0.458" y="0.508" clip-path="url(#SVGID_7_)" fill="url(#SVGID_8_)" width="17.194" height="12.822"/>
</g>
<g>
	<defs>
		<path id="SVGID_9_" d="M0.346,26.235c0.153,0.05,0.348,0.028,0.559-0.077l11.13-6.164l5.617-3.109l-3.737-3.555L0.346,26.235z"/>
	</defs>
	<clipPath id="SVGID_10_">
		<use xlink:href="#SVGID_9_"  overflow="visible"/>
	</clipPath>
	
		<linearGradient id="SVGID_11_" gradientUnits="userSpaceOnUse" x1="0" y1="29.9365" x2="1" y2="29.9365" gradientTransform="matrix(0 13.3291 13.3291 0 -390.0299 13.3301)">
		<stop  offset="0" style="stop-color:#EC403D"/>
		<stop  offset="0.3693" style="stop-color:#CA3B73"/>
		<stop  offset="0.7948" style="stop-color:#A736AC"/>
		<stop  offset="1" style="stop-color:#9934C2"/>
	</linearGradient>
	<rect x="0.346" y="13.33" clip-path="url(#SVGID_10_)" fill="url(#SVGID_11_)" width="17.306" height="12.956"/>
</g>
<g>
	<defs>
		<path id="SVGID_12_" d="M13.915,13.33l3.737,3.555l0.003-0.002l0.021-0.012c0.288-0.159,3.091-1.712,4.558-2.524l0.845-0.468
			c0.574-0.333,0.54-0.776,0.081-1.053l-0.081-0.045c-0.581-0.302-5.427-3.005-5.427-3.005L13.915,13.33z"/>
	</defs>
	<clipPath id="SVGID_13_">
		<use xlink:href="#SVGID_12_"  overflow="visible"/>
	</clipPath>
	
		<linearGradient id="SVGID_14_" gradientUnits="userSpaceOnUse" x1="4.882813e-004" y1="29.8945" x2="1.0005" y2="29.8945" gradientTransform="matrix(0 7.1089 7.1089 0 -193.7333 9.7754)">
		<stop  offset="0" style="stop-color:#FF8877"/>
		<stop  offset="0.6139" style="stop-color:#FFB275"/>
		<stop  offset="1" style="stop-color:#FFC774"/>
	</linearGradient>
	<rect x="13.915" y="9.776" clip-path="url(#SVGID_13_)" fill="url(#SVGID_14_)" width="9.738" height="7.109"/>
</g>
</svg>
